<?xml version="1.0"?>
<svg xmlns="http://www.w3.org/2000/svg" xmlns:xlink="http://www.w3.org/1999/xlink" viewBox="0 0 64 64" width="65" height=""><defs><linearGradient id="New_Gradient_Swatch_3" x1="42" y1="66.275" x2="42" y2="1.229" gradientUnits="userSpaceOnUse"><stop offset="0" stop-color="#006df0"/><stop offset="1" stop-color="#00e7f0"/></linearGradient><linearGradient id="New_Gradient_Swatch_3-2" x1="31.841" y1="66.275" x2="31.841" y2="1.229" xlink:href="#New_Gradient_Swatch_3"/></defs><g id="Maintenance_tools" data-name="Maintenance tools"><path d="M53.476,26.405A2.993,2.993,0,0,0,52.9,23a3.073,3.073,0,0,0-4.242,0l-.706.707-1-1,1.6-1.6a3.111,3.111,0,0,1,2.717-.814,9.074,9.074,0,0,0,7.706-2.538A8.974,8.974,0,0,0,60.9,7.879a1,1,0,0,0-1.628-.318L54.4,12.429l-2.356-.471L51.571,9.6l4.868-4.869A1,1,0,0,0,56.121,3.1a9,9,0,0,0-12.415,9.634,3.123,3.123,0,0,1-.815,2.714l-1.6,1.6-6.662-6.663L33.283,7.7a1,1,0,0,0-.408-.427L26.516,3.746a1,1,0,0,0-1.193.167l-1.41,1.41a1,1,0,0,0-.167,1.192l3.53,6.36a1,1,0,0,0,.426.409l2.686,1.347,6.661,6.662-1.6,1.6a3.111,3.111,0,0,1-2.717.814A9.006,9.006,0,0,0,23.1,36.121a1,1,0,0,0,1.628.318l4.87-4.868,2.356.471.471,2.357-4.868,4.869a1,1,0,0,0,.318,1.628,9,9,0,0,0,12.415-9.634,3.123,3.123,0,0,1,.815-2.714l1.6-1.6,1,1L43,28.657a2.992,2.992,0,0,0,3.407,4.821l5.906,5.907a5,5,0,1,0,7.072-7.071ZM31.687,13.1a.99.99,0,0,0-.258-.187l-2.554-1.281L25.86,6.2,26.2,5.86l5.431,3.015,1.281,2.553a.972.972,0,0,0,.187.259l6.776,6.777-1.416,1.415ZM39.7,27.133a5.1,5.1,0,0,0-1.379,4.426,7.005,7.005,0,0,1-8.16,7.941l4.066-4.065a1,1,0,0,0,.273-.9L33.788,31A1,1,0,0,0,33,30.212l-3.535-.707a1,1,0,0,0-.9.273L24.5,33.843a7.006,7.006,0,0,1,7.938-8.16,5.167,5.167,0,0,0,4.428-1.378l7.439-7.438a5.1,5.1,0,0,0,1.379-4.426A7.005,7.005,0,0,1,53.844,4.5L49.778,8.565a1,1,0,0,0-.273.9L50.212,13a1,1,0,0,0,.784.784l3.535.707a1,1,0,0,0,.9-.273L59.5,10.157a7.006,7.006,0,0,1-7.938,8.16A5.164,5.164,0,0,0,47.134,19.7Zm5.842-3.012,1,1L45.12,26.536l-1-1Zm-1.123,7.364a1,1,0,0,1,0-1.414l5.657-5.657a1,1,0,1,1,1.414,1.415l-5.658,5.657A1.023,1.023,0,0,1,44.414,31.485Zm13.557,6.486a3.005,3.005,0,0,1-4.243,0l-5.779-5.779,4.243-4.242,5.779,5.778a3,3,0,0,1,0,4.243Z" style="fill:#285C3D"/><path d="M61.148,44.9a3.995,3.995,0,0,0-5.458-1.469l-9.751,5.629a3.964,3.964,0,0,0-2.259-1.629l-14.92-4a7,7,0,0,0-3.51-.03L20,44.719V43a1,1,0,0,0-1-1H11a1,1,0,0,0-1,1v1H3a1,1,0,0,0-1,1V59a1,1,0,0,0,1,1h7v1a1,1,0,0,0,1,1h8a1,1,0,0,0,1-1V59.618l1.286.643a7.027,7.027,0,0,0,3.13.739H39.393a7.011,7.011,0,0,0,3.5-.938l16.8-9.7A4.011,4.011,0,0,0,61.148,44.9ZM4,58V46h6V58Zm14,2H12V44h6ZM58.69,48.634l-16.8,9.7a5,5,0,0,1-2.5.67H24.416a5.027,5.027,0,0,1-2.235-.528L20,57.382v-10.6l5.734-1.434a5.025,5.025,0,0,1,2.508.021l14.92,4a2,2,0,1,1-1.035,3.863L30.2,50.034a1,1,0,0,0-.517,1.932l11.925,3.2a4.043,4.043,0,0,0,1.042.138,3.952,3.952,0,0,0,3.965-4.317l10.072-5.815a2.035,2.035,0,0,1,2.726.732A2.008,2.008,0,0,1,58.69,48.634Z" style="fill:#285C3D"/></g></svg>
